HIERARCHY
ROOT Hips
{
	OFFSET -339.306915 540.749023 89.171944
	CHANNELS 6 Xposition Yposition Zposition Zrotation Yrotation Xrotation
	JOINT Spine
	{
		OFFSET 0.000000 2.080078 8.814247
		CHANNELS 6 Xposition Yposition Zposition Zrotation Yrotation Xrotation
		JOINT Spine1
		{
			OFFSET 0.000000 0.000000 8.844139
			CHANNELS 6 Xposition Yposition Zposition Zrotation Yrotation Xrotation
			JOINT Spine2
			{
				OFFSET 0.000000 0.000000 11.682266
				CHANNELS 6 Xposition Yposition Zposition Zrotation Yrotation Xrotation
				JOINT Spine3
				{
					OFFSET 0.000000 0.000000 11.746696
					CHANNELS 6 Xposition Yposition Zposition Zrotation Yrotation Xrotation
					JOINT Neck
					{
						OFFSET 0.000000 0.000000 17.658264
						CHANNELS 6 Xposition Yposition Zposition Zrotation Yrotation Xrotation
						JOINT Neck1
						{
							OFFSET 0.000000 0.000000 5.101517
							CHANNELS 6 Xposition Yposition Zposition Zrotation Yrotation Xrotation
							JOINT Head
							{
								OFFSET 0.000000 0.000000 5.101517
								CHANNELS 6 Xposition Yposition Zposition Zrotation Yrotation Xrotation
								JOINT HeadEnd
								{
									OFFSET 0.000000 0.000000 11.655090
									CHANNELS 6 Xposition Yposition Zposition Zrotation Yrotation Xrotation
									End Site
									{
										OFFSET 0.000000 0.000000 0.100006
									}
								}
							}
						}
					}
					JOINT RightShoulder
					{
						OFFSET -2.625397 0.000000 11.175217
						CHANNELS 6 Xposition Yposition Zposition Zrotation Yrotation Xrotation
						JOINT RightArm
						{
							OFFSET 0.000000 0.000000 10.434708
							CHANNELS 6 Xposition Yposition Zposition Zrotation Yrotation Xrotation
							JOINT RightForeArm
							{
								OFFSET 0.000000 0.000000 29.628418
								CHANNELS 6 Xposition Yposition Zposition Zrotation Yrotation Xrotation
								JOINT RightHand
								{
									OFFSET 0.000000 0.000000 22.857605
									CHANNELS 6 Xposition Yposition Zposition Zrotation Yrotation Xrotation
									JOINT RightHandThumb1
									{
										OFFSET -2.867310 -2.944275 3.959564
										CHANNELS 6 Xposition Yposition Zposition Zrotation Yrotation Xrotation
										JOINT RightHandThumb2
										{
											OFFSET 0.000000 0.000000 3.350403
											CHANNELS 6 Xposition Yposition Zposition Zrotation Yrotation Xrotation
											JOINT RightHandThumb3
											{
												OFFSET 0.000000 0.000000 3.756516
												CHANNELS 6 Xposition Yposition Zposition Zrotation Yrotation Xrotation
												JOINT RightHandThumb4
												{
													OFFSET 0.000000 0.000000 3.147339
													CHANNELS 6 Xposition Yposition Zposition Zrotation Yrotation Xrotation
													End Site
													{
														OFFSET 0.000000 0.000000 0.100006
													}
												}
											}
										}
									}
									JOINT RightHandIndex1
									{
										OFFSET -0.086761 -2.345276 10.030899
										CHANNELS 6 Xposition Yposition Zposition Zrotation Yrotation Xrotation
										JOINT RightHandIndex2
										{
											OFFSET 0.000000 0.000000 4.061096
											CHANNELS 6 Xposition Yposition Zposition Zrotation Yrotation Xrotation
											JOINT RightHandIndex3
											{
												OFFSET 0.000000 0.000000 3.248871
												CHANNELS 6 Xposition Yposition Zposition Zrotation Yrotation Xrotation
												JOINT RightHandIndex4
												{
													OFFSET 0.000000 0.000000 2.639709
													CHANNELS 6 Xposition Yposition Zposition Zrotation Yrotation Xrotation
													End Site
													{
														OFFSET 0.000000 0.000000 0.100006
													}
												}
											}
										}
									}
									JOINT RightHandMiddle1
									{
										OFFSET 0.104095 -0.006775 9.502945
										CHANNELS 6 Xposition Yposition Zposition Zrotation Yrotation Xrotation
										JOINT RightHandMiddle2
										{
											OFFSET 0.000000 0.000000 4.568726
											CHANNELS 6 Xposition Yposition Zposition Zrotation Yrotation Xrotation
											JOINT RightHandMiddle3
											{
												OFFSET 0.000000 0.000000 3.654984
												CHANNELS 6 Xposition Yposition Zposition Zrotation Yrotation Xrotation
												JOINT RightHandMiddle4
												{
													OFFSET 0.000000 0.000000 2.741241
													CHANNELS 6 Xposition Yposition Zposition Zrotation Yrotation Xrotation
													End Site
													{
														OFFSET 0.000000 0.000000 0.100006
													}
												}
											}
										}
									}
									JOINT RightHandRing1
									{
										OFFSET 0.086761 2.267456 8.921707
										CHANNELS 6 Xposition Yposition Zposition Zrotation Yrotation Xrotation
										JOINT RightHandRing2
										{
											OFFSET 0.000000 0.000000 4.061096
											CHANNELS 6 Xposition Yposition Zposition Zrotation Yrotation Xrotation
											JOINT RightHandRing3
											{
												OFFSET 0.000000 0.000000 3.654984
												CHANNELS 6 Xposition Yposition Zposition Zrotation Yrotation Xrotation
												JOINT RightHandRing4
												{
													OFFSET 0.000000 0.000000 2.741241
													CHANNELS 6 Xposition Yposition Zposition Zrotation Yrotation Xrotation
													End Site
													{
														OFFSET 0.000000 0.000000 0.100006
													}
												}
											}
										}
									}
									JOINT RightHandPinky1
									{
										OFFSET -0.173492 4.467224 7.976990
										CHANNELS 6 Xposition Yposition Zposition Zrotation Yrotation Xrotation
										JOINT RightHandPinky2
										{
											OFFSET 0.000000 0.000000 3.350403
											CHANNELS 6 Xposition Yposition Zposition Zrotation Yrotation Xrotation
											JOINT RightHandPinky3
											{
												OFFSET 0.000000 0.000000 2.842758
												CHANNELS 6 Xposition Yposition Zposition Zrotation Yrotation Xrotation
												JOINT RightHandPinky4
												{
													OFFSET 0.000000 0.000000 2.639709
													CHANNELS 6 Xposition Yposition Zposition Zrotation Yrotation Xrotation
													End Site
													{
														OFFSET 0.000000 0.000000 0.100006
													}
												}
											}
										}
									}
									JOINT RightForeArmEnd
									{
										OFFSET 0.000000 0.000000 0.000000
										CHANNELS 6 Xposition Yposition Zposition Zrotation Yrotation Xrotation
										End Site
										{
											OFFSET 0.000000 0.000000 0.100006
										}
									}
								}
								JOINT RightArmEnd
								{
									OFFSET 0.000000 0.000000 0.000000
									CHANNELS 6 Xposition Yposition Zposition Zrotation Yrotation Xrotation
									End Site
									{
										OFFSET 0.000000 0.000000 0.100006
									}
								}
							}
						}
					}
					JOINT LeftShoulder
					{
						OFFSET 2.625397 0.000000 11.175217
						CHANNELS 6 Xposition Yposition Zposition Zrotation Yrotation Xrotation
						JOINT LeftArm
						{
							OFFSET 0.000000 0.000000 10.813629
							CHANNELS 6 Xposition Yposition Zposition Zrotation Yrotation Xrotation
							JOINT LeftForeArm
							{
								OFFSET 0.000000 0.000000 28.724777
								CHANNELS 6 Xposition Yposition Zposition Zrotation Yrotation Xrotation
								JOINT LeftHand
								{
									OFFSET 0.644379 0.328857 25.716171
									CHANNELS 6 Xposition Yposition Zposition Zrotation Yrotation Xrotation
									JOINT LeftHandThumb1
									{
										OFFSET 2.867310 -2.944275 3.959564
										CHANNELS 6 Xposition Yposition Zposition Zrotation Yrotation Xrotation
										JOINT LeftHandThumb2
										{
											OFFSET 0.000000 0.000000 3.350403
											CHANNELS 6 Xposition Yposition Zposition Zrotation Yrotation Xrotation
											JOINT LeftHandThumb3
											{
												OFFSET 0.000000 0.000000 3.756516
												CHANNELS 6 Xposition Yposition Zposition Zrotation Yrotation Xrotation
												JOINT LeftHandThumb4
												{
													OFFSET 0.000000 0.000000 3.100006
													CHANNELS 6 Xposition Yposition Zposition Zrotation Yrotation Xrotation
													End Site
													{
														OFFSET 0.000000 0.000000 0.100006
													}
												}
											}
										}
									}
									JOINT LeftHandIndex1
									{
										OFFSET 0.086761 -2.345276 10.030899
										CHANNELS 6 Xposition Yposition Zposition Zrotation Yrotation Xrotation
										JOINT LeftHandIndex2
										{
											OFFSET 0.000000 0.000000 4.061096
											CHANNELS 6 Xposition Yposition Zposition Zrotation Yrotation Xrotation
											JOINT LeftHandIndex3
											{
												OFFSET 0.000000 0.000000 3.248871
												CHANNELS 6 Xposition Yposition Zposition Zrotation Yrotation Xrotation
												JOINT LeftHandIndex4
												{
													OFFSET 0.000000 0.000000 2.639709
													CHANNELS 6 Xposition Yposition Zposition Zrotation Yrotation Xrotation
													End Site
													{
														OFFSET 0.000000 0.000000 0.100006
													}
												}
											}
										}
									}
									JOINT LeftHandMiddle1
									{
										OFFSET -0.104095 -0.006775 9.502945
										CHANNELS 6 Xposition Yposition Zposition Zrotation Yrotation Xrotation
										JOINT LeftHandMiddle2
										{
											OFFSET 0.000000 0.000000 4.568726
											CHANNELS 6 Xposition Yposition Zposition Zrotation Yrotation Xrotation
											JOINT LeftHandMiddle3
											{
												OFFSET 0.000000 0.000000 3.654984
												CHANNELS 6 Xposition Yposition Zposition Zrotation Yrotation Xrotation
												JOINT LeftHandMiddle4
												{
													OFFSET 0.000000 0.000000 2.741241
													CHANNELS 6 Xposition Yposition Zposition Zrotation Yrotation Xrotation
													End Site
													{
														OFFSET 0.000000 0.000000 0.100006
													}
												}
											}
										}
									}
									JOINT LeftHandRing1
									{
										OFFSET -0.086761 2.267456 8.921707
										CHANNELS 6 Xposition Yposition Zposition Zrotation Yrotation Xrotation
										JOINT LeftHandRing2
										{
											OFFSET 0.000000 0.000000 4.061096
											CHANNELS 6 Xposition Yposition Zposition Zrotation Yrotation Xrotation
											JOINT LeftHandRing3
											{
												OFFSET 0.000000 0.000000 3.654984
												CHANNELS 6 Xposition Yposition Zposition Zrotation Yrotation Xrotation
												JOINT LeftHandRing4
												{
													OFFSET 0.000000 0.000000 2.741241
													CHANNELS 6 Xposition Yposition Zposition Zrotation Yrotation Xrotation
													End Site
													{
														OFFSET 0.000000 0.000000 0.100006
													}
												}
											}
										}
									}
									JOINT LeftHandPinky1
									{
										OFFSET 0.173492 4.467224 7.976990
										CHANNELS 6 Xposition Yposition Zposition Zrotation Yrotation Xrotation
										JOINT LeftHandPinky2
										{
											OFFSET 0.000000 0.000000 3.350403
											CHANNELS 6 Xposition Yposition Zposition Zrotation Yrotation Xrotation
											JOINT LeftHandPinky3
											{
												OFFSET 0.000000 0.000000 2.842758
												CHANNELS 6 Xposition Yposition Zposition Zrotation Yrotation Xrotation
												JOINT LeftHandPinky4
												{
													OFFSET 0.000000 0.000000 2.639709
													CHANNELS 6 Xposition Yposition Zposition Zrotation Yrotation Xrotation
													End Site
													{
														OFFSET 0.000000 0.000000 0.100006
													}
												}
											}
										}
									}
									JOINT LeftForeArmEnd
									{
										OFFSET 0.000000 0.000000 0.000000
										CHANNELS 6 Xposition Yposition Zposition Zrotation Yrotation Xrotation
										End Site
										{
											OFFSET 0.000000 0.000000 0.100006
										}
									}
								}
								JOINT LeftArmEnd
								{
									OFFSET 0.000000 0.000000 0.000000
									CHANNELS 6 Xposition Yposition Zposition Zrotation Yrotation Xrotation
									End Site
									{
										OFFSET 0.000000 0.000000 0.100006
									}
								}
							}
						}
					}
				}
			}
		}
	}
	JOINT RightUpLeg
	{
		OFFSET -11.289948 0.000000 0.000000
		CHANNELS 6 Xposition Yposition Zposition Zrotation Yrotation Xrotation
		JOINT RightLeg
		{
			OFFSET 0.000000 0.000000 -38.200329
			CHANNELS 6 Xposition Yposition Zposition Zrotation Yrotation Xrotation
			JOINT RightFoot
			{
				OFFSET 0.000000 0.000000 -39.900856
				CHANNELS 6 Xposition Yposition Zposition Zrotation Yrotation Xrotation
				JOINT RightToeBase
				{
					OFFSET 0.000000 -15.261658 0.000001
					CHANNELS 6 Xposition Yposition Zposition Zrotation Yrotation Xrotation
					JOINT RightToeBaseEnd
					{
						OFFSET 0.000000 -7.370728 0.000001
						CHANNELS 6 Xposition Yposition Zposition Zrotation Yrotation Xrotation
						End Site
						{
							OFFSET 0.000000 0.000000 0.100000
						}
					}
				}
				JOINT RightLegEnd
				{
					OFFSET 0.000000 0.000000 0.000000
					CHANNELS 6 Xposition Yposition Zposition Zrotation Yrotation Xrotation
					End Site
					{
						OFFSET 0.000000 0.000000 0.100000
					}
				}
			}
			JOINT RightUpLegEnd
			{
				OFFSET 0.000000 0.000000 0.000000
				CHANNELS 6 Xposition Yposition Zposition Zrotation Yrotation Xrotation
				End Site
				{
					OFFSET 0.000000 0.000000 0.099998
				}
			}
		}
	}
	JOINT LeftUpLeg
	{
		OFFSET 11.315674 0.000000 0.000000
		CHANNELS 6 Xposition Yposition Zposition Zrotation Yrotation Xrotation
		JOINT LeftLeg
		{
			OFFSET 0.000000 0.000000 -38.200329
			CHANNELS 6 Xposition Yposition Zposition Zrotation Yrotation Xrotation
			JOINT LeftFoot
			{
				OFFSET 0.000000 0.000000 -39.900856
				CHANNELS 6 Xposition Yposition Zposition Zrotation Yrotation Xrotation
				JOINT LeftToeBase
				{
					OFFSET 0.000000 -15.261658 0.000001
					CHANNELS 6 Xposition Yposition Zposition Zrotation Yrotation Xrotation
					JOINT LeftToeBaseEnd
					{
						OFFSET 0.000000 -7.539978 0.000001
						CHANNELS 6 Xposition Yposition Zposition Zrotation Yrotation Xrotation
						End Site
						{
							OFFSET 0.000000 0.000000 0.100000
						}
					}
				}
				JOINT LeftLegEnd
				{
					OFFSET 0.000000 0.000000 0.000000
					CHANNELS 6 Xposition Yposition Zposition Zrotation Yrotation Xrotation
					End Site
					{
						OFFSET 0.000000 0.000000 0.100000
					}
				}
			}
			JOINT LeftUpLegEnd
			{
				OFFSET 0.000000 0.000000 0.000000
				CHANNELS 6 Xposition Yposition Zposition Zrotation Yrotation Xrotation
				End Site
				{
					OFFSET 0.000000 0.000000 0.099998
				}
			}
		}
	}
}
MOTION
Frames: 2
Frame Time: 0.016667
12.721100 -45.803467 99.593552 -6.654246 -2.069219 -4.525329 -0.000007 2.080100 8.814270 0.202110 3.700290 4.377937 -0.000004 0.000021 8.844162 0.263486 0.648282 2.728487 0.000002 -0.000027 11.682263 1.242935 -0.544226 3.605684 -0.000026 -0.000016 11.746705 0.183510 -1.822010 2.706808 -0.000004 0.000010 17.658272 4.613058 7.904395 6.005419 -0.000007 -0.000023 5.101488 1.494127 -0.412394 -1.388666 0.000009 -0.000018 5.101542 1.144854 -1.438854 -9.953326 0.000001 0.000000 11.655089 -0.000000 -0.000000 -0.000000 -2.625408 0.000001 11.175210 10.414717 -92.098544 0.138030 -0.000045 0.000015 10.434723 -32.168067 -60.743311 35.179767 -0.000001 0.000006 29.628445 14.230357 1.383105 8.067402 -0.000009 -0.000010 22.857592 20.609942 4.197245 -1.261682 -2.867337 -2.944260 3.959549 32.223466 -25.431946 39.988418 -0.000008 0.000000 3.350395 -30.794970 10.800671 -52.108985 0.000008 0.000008 3.756504 -20.423025 10.591290 -35.542891 -0.000014 -0.000000 3.147351 0.000000 0.000002 -0.000002 -0.086769 -2.345295 10.030869 174.720351 -105.794856 -187.867673 -0.000019 -0.000010 4.061104 4.786887 -52.731147 -10.643311 0.000008 0.000015 3.248867 5.286876 -52.731127 -10.643306 0.000007 -0.000004 2.639708 0.000000 0.000001 0.000001 0.104095 -0.006788 9.502930 -20.545026 -72.260642 12.310863 -0.000016 0.000016 4.568697 1.344847 -51.707988 -3.806026 -0.000006 0.000022 3.654987 1.844834 -51.707981 -3.806007 0.000000 0.000000 2.741262 0.000000 0.000000 0.000000 0.086750 2.267455 8.921696 -53.621247 -72.104914 51.643784 0.000000 -0.000020 4.061077 -1.661524 -55.334627 5.074096 -0.000018 -0.000028 3.654985 -2.661534 -55.334627 5.074113 -0.000012 -0.000011 2.741226 0.000000 -0.000000 0.000002 -0.173492 4.467243 7.976990 117.386145 -115.742432 -110.732803 -0.000004 0.000015 3.350410 -6.082975 -54.294065 15.691024 -0.000038 -0.000021 2.842758 -8.082989 -54.294062 15.691031 -0.000008 0.000005 2.639705 -0.000001 -0.000000 -0.000003 -0.000015 0.000003 -0.000006 -0.000001 0.000001 0.000002 0.000002 0.000003 0.000014 -0.000000 0.000001 -0.000000 2.625386 0.000005 11.175243 -11.940102 89.600580 0.012857 0.000015 0.000007 10.813652 49.461631 51.816588 36.521824 -0.000002 0.000008 28.724783 -22.742725 4.887148 26.467808 0.644367 0.328791 25.716183 -12.352766 6.000511 -8.364549 2.867313 -2.944244 3.959564 -31.788015 23.321988 42.844267 0.000000 0.000015 3.350426 26.178920 -11.072162 -44.741714 -0.000004 0.000008 3.756527 17.287803 -9.935962 -30.477670 -0.000007 -0.000002 3.100050 0.000000 0.000002 0.000002 0.086716 -2.345261 10.030899 36.181182 59.339304 30.842467 0.000013 -0.000003 4.061161 2.779701 44.640914 7.977851 0.000013 -0.000003 3.248863 3.279682 44.640887 7.977842 -0.000003 0.000002 2.639748 0.000000 -0.000001 -0.000002 -0.104076 -0.006766 9.502953 24.175583 58.725659 22.711859 0.000010 -0.000011 4.568741 0.601314 42.965435 2.797838 0.000016 0.000005 3.654987 1.101299 42.965445 2.797828 0.000022 0.000006 2.741269 -0.000001 0.000001 -0.000001 -0.086758 2.267452 8.921715 9.224163 61.791588 14.926246 0.000029 0.000074 4.061100 -0.307897 43.249953 -3.298392 0.000009 -0.000020 3.655024 -1.307893 43.249929 -3.298387 -0.000010 0.000006 2.741267 -0.000000 0.000000 0.000001 0.173492 4.467237 7.977024 -188.442406 118.910957 -172.823512 0.000015 0.000024 3.350403 -1.427016 40.017320 -9.392948 -0.000011 -0.000006 2.842758 -3.427030 40.017334 -9.392962 0.000000 -0.000009 2.639720 0.000002 -0.000002 0.000001 0.000022 0.000002 0.000032 -0.000001 0.000000 0.000000 0.000004 0.000002 -0.000003 0.000000 0.000001 -0.000001 -11.289961 0.000041 -0.000003 11.454792 2.736908 -0.390003 0.000005 0.000008 -38.200325 -1.769168 0.263952 8.482548 -0.000016 0.000102 -39.900803 -1.148163 -3.033063 60.646800 -0.000014 -15.261656 0.000017 3.038087 0.744160 -24.321310 -0.000000 -7.370664 0.000005 -0.000000 -0.000000 -0.000000 0.000000 0.000061 0.000004 -0.000000 0.000000 -0.000000 0.000002 0.000061 -0.000006 -0.000000 -0.000000 -0.000000 11.315638 0.000027 0.000007 2.695336 1.984627 -0.809381 -0.000030 0.000063 -38.200325 1.260552 -0.187416 8.455279 -0.000000 0.000017 -39.900845 0.431730 -0.542012 72.252821 -0.000006 -15.261662 -0.000012 0.355129 -0.431752 -37.941844 0.000000 -7.539918 0.000006 0.000000 -0.000000 -0.000000 -0.000000 -0.000000 -0.000002 0.000000 0.000000 -0.000001 -0.000003 0.000061 0.000004 0.000000 -0.000000 -0.000000 
12.738373 -45.630859 97.289841 -6.955994 -2.435504 -6.026849 -0.000000 2.080072 8.814245 0.299187 4.006453 5.535852 0.000009 -0.000016 8.844144 0.287733 0.677179 3.277600 0.000003 0.000026 11.682278 1.369375 -0.512644 3.773398 -0.000006 0.000041 11.746744 0.248687 -1.671474 2.084910 0.000011 -0.000071 17.658283 4.576310 7.280549 6.968172 0.000013 -0.000004 5.101545 1.528342 -0.359847 -1.192148 -0.000009 -0.000005 5.101512 1.086784 -1.146339 -10.363111 0.000002 0.000002 11.655093 -0.000000 0.000001 -0.000000 -2.625410 0.000012 11.175245 10.450966 -94.077004 0.109573 -0.000031 -0.000017 10.434711 -17.817892 -64.271247 23.084614 0.000010 -0.000015 29.628422 15.841080 0.911835 6.927024 -0.000014 -0.000036 22.857592 22.334369 4.418310 -4.314896 -2.867303 -2.944290 3.959564 32.175730 -25.238930 40.247904 0.000008 0.000031 3.350410 -30.377109 10.846357 -51.438906 0.000008 0.000015 3.756550 -20.135481 10.543026 -35.080617 0.000019 -0.000000 3.147358 0.000001 0.000000 -0.000001 -0.086761 -2.345284 10.030884 174.930625 -105.996750 -187.264171 -0.000015 0.000010 4.061104 4.719521 -52.512649 -10.558546 0.000038 0.000025 3.248848 5.219527 -52.512663 -10.558558 -0.000002 0.000001 2.639724 -0.000000 0.000001 -0.000000 0.104088 -0.006744 9.502937 -20.319774 -72.115705 12.922738 -0.000025 0.000019 4.568737 1.329218 -51.561716 -3.786082 0.000002 0.000028 3.654976 1.829208 -51.561706 -3.786076 0.000010 -0.000006 2.741266 0.000000 0.000001 0.000000 0.086763 2.267477 8.921711 -53.134193 -71.992646 51.953469 -0.000019 0.000006 4.061089 -1.647861 -55.246822 5.057484 -0.000002 0.000009 3.654972 -2.647866 -55.246794 5.057482 0.000004 -0.000005 2.741268 0.000001 -0.000001 0.000002 -0.173489 4.467220 7.976994 118.061322 -115.875717 -110.681528 -0.000027 -0.000027 3.350418 -6.030052 -54.183672 15.625782 -0.000027 0.000000 2.842773 -8.030044 -54.183676 15.625772 -0.000009 -0.000010 2.639723 0.000001 -0.000000 -0.000000 0.000010 0.000001 -0.000006 0.000000 -0.000003 -0.000000 -0.000003 -0.000003 -0.000003 0.000000 0.000001 0.000001 2.625424 -0.000067 11.175256 -12.310998 92.195089 -0.019829 0.000015 -0.000005 10.813622 39.881249 55.563254 29.255005 -0.000010 -0.000023 28.724777 -27.090171 6.679312 22.982770 0.644365 0.328846 25.716209 -9.601775 5.161228 -9.992550 2.867308 -2.944260 3.959518 -31.758122 23.131856 43.104211 0.000008 0.000008 3.350426 25.758131 -11.067896 -44.071113 0.000008 0.000023 3.756500 17.006276 -9.862941 -30.019689 -0.000010 0.000004 3.100018 -0.000000 -0.000002 0.000001 0.086746 -2.345284 10.030869 35.272883 58.662794 31.570316 0.000017 0.000015 4.061123 2.700564 44.234880 7.864833 0.000013 -0.000011 3.248898 3.200557 44.234860 7.864830 0.000003 -0.000004 2.639734 0.000000 -0.000002 -0.000003 -0.104092 -0.006785 9.502922 23.633262 58.126139 23.157589 0.000017 -0.000018 4.568745 0.573308 42.541717 2.756596 0.000035 0.000012 3.654985 1.073372 42.541615 2.756656 -0.000003 0.000004 2.741255 -0.000000 -0.000001 -0.000001 -0.086746 2.267467 8.921722 8.836620 60.958994 15.169066 0.000010 0.000022 4.061129 -0.259219 42.624864 -3.226941 0.000045 0.000019 3.655012 -1.259216 42.624858 -3.226928 0.000001 0.000005 2.741269 0.000000 -0.000002 -0.000000 0.173508 4.467175 7.977001 -188.348518 119.882497 -172.354920 0.000008 -0.000010 3.350410 -1.278198 39.315969 -9.159822 0.000032 0.000006 2.842743 -3.278215 39.316000 -9.159834 0.000028 0.000008 2.639721 -0.000001 0.000001 0.000001 0.000024 0.000001 -0.000004 -0.000000 0.000000 -0.000000 -0.000001 -0.000010 0.000033 0.000001 -0.000001 -0.000002 -11.289968 -0.000015 -0.000002 10.951428 2.672349 2.283992 -0.000001 0.000099 -38.200325 -2.095899 0.308425 8.368002 -0.000002 0.000019 -39.900845 -0.007802 -1.874266 54.975749 0.000011 -15.261673 -0.000041 -1.652368 3.420819 -33.884575 0.000001 -7.370665 0.000002 -0.000000 0.000000 -0.000000 -0.000000 0.000062 -0.000000 -0.000000 -0.000000 0.000003 0.000000 0.000000 -0.000003 0.000000 0.000000 0.000000 11.315639 0.000031 0.000018 3.092636 2.504810 1.474324 -0.000023 0.000084 -38.200329 0.513829 -0.076724 8.493263 -0.000000 0.000024 -39.900883 1.365952 -1.444132 69.344971 -0.000005 -15.261621 -0.000019 3.850652 -0.155700 -51.785292 -0.000001 -7.539978 0.000005 -0.000000 0.000001 0.000001 0.000000 0.000001 0.000001 -0.000000 -0.000000 0.000001 -0.000003 0.000059 0.000001 0.000000 0.000000 0.000001 
